<svg width="33" height="32" viewBox="0 0 33 32" fill="none" xmlns="http://www.w3.org/2000/svg">
<g clip-path="url(#clip0_536_2182)">
<path d="M6.81251 6.68262C6.67918 6.68262 6.55835 6.73053 6.46251 6.81595C6.42918 6.84512 6.40418 6.88053 6.37918 6.91595C6.27918 7.06178 6.24793 7.25137 6.31251 7.41595L7.27918 9.81595L7.22918 9.88262L5.81251 12.016H5.21251C4.37501 12.016 3.61251 12.7785 3.61251 13.616V16.566C3.61251 18.4555 4.3646 19.9722 5.36251 21.0493C5.93543 21.0097 6.6646 20.8222 7.09585 20.4826C7.3771 20.2597 7.72085 20.1493 8.07918 20.1493C8.43543 20.1493 8.79793 20.2618 9.07918 20.4826C9.57501 20.8722 10.4479 21.0493 11.0458 21.0493C11.6438 21.0493 12.5021 20.8701 12.9958 20.4826C13.2771 20.2597 13.6354 20.1326 13.9958 20.1326C14.3542 20.1326 14.7 20.2597 14.9792 20.4826C15.4771 20.8722 16.3479 21.0493 16.9458 21.0493C17.5438 21.0493 18.4167 20.8722 18.9125 20.4826C19.1938 20.2618 19.5396 20.1493 19.8958 20.1493C20.2521 20.1493 20.6167 20.2618 20.8958 20.4826C21.3938 20.8722 22.2458 21.0493 22.8458 21.0493C23.4458 21.0493 24.3188 20.8722 24.8125 20.4826C25.0938 20.2597 25.4563 20.1493 25.8125 20.1493C26.0083 20.1493 26.1979 20.1805 26.3792 20.2493C28.1604 18.7409 29.6313 16.6368 30.2292 13.966C30.3708 13.3097 30.1792 12.8951 29.9958 12.666C29.6979 12.2951 29.1354 12.016 28.6792 12.016H24.5792L22.6958 9.88262L20.0125 6.86595C19.9729 6.82012 19.9146 6.77845 19.8625 6.74928C19.7854 6.70553 19.7042 6.68262 19.6125 6.68262H15.3458C15.1167 6.68262 14.9188 6.83053 14.8458 7.04928L13.8958 9.88262H11.8625L9.36251 6.88262C9.26043 6.76178 9.10418 6.68262 8.94585 6.68262H6.81251ZM7.81251 10.9493H22.2125L23.4125 12.2993L23.2458 12.5493H6.84585L6.81251 12.4493L7.81251 10.9493ZM7.19585 13.616H22.5292L21.4625 15.216H7.72918L7.19585 13.616ZM25.2958 14.3326C25.6271 14.3326 25.6625 14.5326 25.6625 14.5326V14.966C25.6625 14.966 25.6979 15.1659 26.0125 15.1659C26.3271 15.1659 26.3625 14.966 26.3625 14.966V14.5326C26.3625 14.5326 26.3979 14.3326 26.7292 14.3326C27.0604 14.3326 27.0792 14.5326 27.0792 14.5326V15.2493C27.0792 15.7409 26.5958 15.7493 26.5958 15.7493H25.5125C25.5125 15.7493 24.9458 15.7222 24.9458 15.2326V14.5326C24.9458 14.5326 24.9667 14.3326 25.2958 14.3326ZM8.07918 21.1993C7.96251 21.1993 7.85835 21.2389 7.76251 21.3159C7.0146 21.9035 5.87293 22.1159 5.12918 22.1159C4.83335 22.1159 4.55001 22.0993 4.22918 22.0493C3.94168 22.0055 3.65835 22.2076 3.61251 22.4993C3.56668 22.7909 3.77085 23.0555 4.06251 23.0993C4.43751 23.1555 4.77918 23.1826 5.12918 23.1826C5.98126 23.1826 7.15418 22.9639 8.07918 22.3826C9.00418 22.9639 10.1938 23.1826 11.0458 23.1826C11.8979 23.1826 13.0708 22.9639 13.9958 22.3826C14.9208 22.9639 16.0938 23.1826 16.9458 23.1826C17.7979 23.1826 18.9708 22.9639 19.8958 22.3826C20.8208 22.9639 21.9938 23.1826 22.8458 23.1826C23.6979 23.1826 24.8875 22.9639 25.8125 22.3826C26.7375 22.9639 27.9083 23.1826 28.7625 23.1826C29.1854 23.1826 29.5708 23.1264 29.9292 22.9993C30.2063 22.9035 30.3438 22.593 30.2458 22.3159C30.1479 22.0389 29.8396 21.8826 29.5625 21.9826C29.3208 22.068 29.0625 22.1159 28.7625 22.1159C28.0188 22.1159 26.875 21.9035 26.1292 21.3159C25.9354 21.1639 25.6729 21.1639 25.4792 21.3159C24.7333 21.9035 23.5896 22.1159 22.8458 22.1159C22.1021 22.1159 20.9771 21.9055 20.2292 21.3159C20.0375 21.1639 19.7542 21.1639 19.5625 21.3159C18.8146 21.9035 17.6896 22.1159 16.9458 22.1159C16.2021 22.1159 15.0604 21.9055 14.3125 21.3159C14.1188 21.1639 13.8563 21.1639 13.6625 21.3159C12.9167 21.9035 11.7896 22.1159 11.0458 22.1159C10.3021 22.1159 9.16043 21.9055 8.41251 21.3159C8.31668 21.2409 8.19585 21.1993 8.07918 21.1993ZM8.07918 23.3326C7.96251 23.3326 7.85835 23.3722 7.76251 23.4493C7.0146 24.0368 5.87293 24.2493 5.12918 24.2493C4.83335 24.2493 4.55001 24.2326 4.22918 24.1826C3.94168 24.1389 3.65835 24.341 3.61251 24.6326C3.56668 24.9243 3.77085 25.1889 4.06251 25.2326C4.43751 25.2889 4.77918 25.3159 5.12918 25.3159C5.98126 25.3159 7.15418 25.0972 8.07918 24.5159C9.00418 25.0972 10.1938 25.3159 11.0458 25.3159C11.8979 25.3159 13.0708 25.0972 13.9958 24.5159C14.9208 25.0972 16.0938 25.3159 16.9458 25.3159C17.7979 25.3159 18.9708 25.0972 19.8958 24.5159C20.8208 25.0972 21.9938 25.3159 22.8458 25.3159C23.6979 25.3159 24.8875 25.0972 25.8125 24.5159C26.7375 25.0972 27.9083 25.3159 28.7625 25.3159C29.1854 25.3159 29.5708 25.2597 29.9292 25.1326C30.2063 25.0368 30.3438 24.7264 30.2458 24.4493C30.1479 24.1722 29.8396 24.0159 29.5625 24.1159C29.3208 24.2014 29.0625 24.2493 28.7625 24.2493C28.0188 24.2493 26.875 24.0368 26.1292 23.4493C25.9354 23.2972 25.6729 23.2972 25.4792 23.4493C24.7333 24.0368 23.5896 24.2493 22.8458 24.2493C22.1021 24.2493 20.9771 24.0389 20.2292 23.4493C20.0375 23.2972 19.7542 23.2972 19.5625 23.4493C18.8146 24.0368 17.6896 24.2493 16.9458 24.2493C16.2021 24.2493 15.0604 24.0389 14.3125 23.4493C14.1188 23.2972 13.8563 23.2972 13.6625 23.4493C12.9167 24.0368 11.7896 24.2493 11.0458 24.2493C10.3021 24.2493 9.16043 24.0389 8.41251 23.4493C8.31668 23.3743 8.19585 23.3326 8.07918 23.3326Z" fill="#F8F8F8"/>
</g>
<defs>
<clipPath id="clip0_536_2182">
<rect width="32" height="32" fill="white" transform="translate(0.940552)"/>
</clipPath>
</defs>
</svg>
