<svg width="25" height="25" viewBox="0 0 25 25" fill="none" xmlns="http://www.w3.org/2000/svg">
<g clip-path="url(#clip0_534_2379)">
<path d="M3.73755 6.57544H22.2175V17.9154H3.73755V6.57544Z" fill="#ECEFF1"/>
<path d="M3.7384 6.57544H22.2184V7.83544H3.7384V6.57544ZM3.7384 9.09544H22.2184V10.3554H3.7384V9.09544ZM3.7384 11.6154H22.2184V12.8754H3.7384V11.6154ZM3.7384 14.1354H22.2184V15.3954H3.7384V14.1354ZM3.7384 16.6554H22.2184V17.9154H3.7384V16.6554Z" fill="#F44336"/>
<path d="M3.7384 6.57544H12.5584V12.8754H3.7384V6.57544Z" fill="#3F51B5"/>
<path d="M4.67919 7.41553L4.87365 7.83049L5.30919 7.89685L4.99419 8.22025L5.06895 8.67553L4.67919 8.46049L4.28943 8.67553L4.36419 8.22025L4.04919 7.89685L4.48473 7.83049L4.67919 7.41553ZM6.35919 7.41553L6.55365 7.83049L6.98919 7.89685L6.67419 8.22025L6.74895 8.67553L6.35919 8.46049L5.96943 8.67553L6.04419 8.22025L5.72919 7.89685L6.16473 7.83049L6.35919 7.41553ZM8.03919 7.41553L8.23365 7.83049L8.66919 7.89685L8.35419 8.22025L8.42895 8.67553L8.03919 8.46049L7.64943 8.67553L7.72419 8.22025L7.40919 7.89685L7.84473 7.83049L8.03919 7.41553ZM9.71919 7.41553L9.91365 7.83049L10.3492 7.89685L10.0342 8.22025L10.109 8.67553L9.71919 8.46049L9.32943 8.67553L9.40419 8.22025L9.08919 7.89685L9.52473 7.83049L9.71919 7.41553ZM11.2942 7.41553L11.4887 7.83049L11.9242 7.89685L11.6092 8.22025L11.684 8.67553L11.2942 8.46049L10.9044 8.67553L10.9792 8.22025L10.6642 7.89685L11.0997 7.83049L11.2942 7.41553ZM4.67919 10.7755L4.87365 11.1905L5.30919 11.2568L4.99419 11.5802L5.06895 12.0355L4.67919 11.8205L4.28943 12.0355L4.36419 11.5802L4.04919 11.2568L4.48473 11.1905L4.67919 10.7755ZM6.35919 10.7755L6.55365 11.1905L6.98919 11.2568L6.67419 11.5802L6.74895 12.0355L6.35919 11.8205L5.96943 12.0355L6.04419 11.5802L5.72919 11.2568L6.16473 11.1905L6.35919 10.7755ZM8.03919 10.7755L8.23365 11.1905L8.66919 11.2568L8.35419 11.5802L8.42895 12.0355L8.03919 11.8205L7.64943 12.0355L7.72419 11.5802L7.40919 11.2568L7.84473 11.1905L8.03919 10.7755ZM9.71919 10.7755L9.91365 11.1905L10.3492 11.2568L10.0342 11.5802L10.109 12.0355L9.71919 11.8205L9.32943 12.0355L9.40419 11.5802L9.08919 11.2568L9.52473 11.1905L9.71919 10.7755ZM11.2942 10.7755L11.4887 11.1905L11.9242 11.2568L11.6092 11.5802L11.684 12.0355L11.2942 11.8205L10.9044 12.0355L10.9792 11.5802L10.6642 11.2568L11.0997 11.1905L11.2942 10.7755ZM5.09919 9.09553L5.29365 9.51049L5.72919 9.57685L5.41419 9.90025L5.48895 10.3555L5.09919 10.1405L4.70943 10.3555L4.78419 9.90025L4.46919 9.57685L4.90473 9.51049L5.09919 9.09553ZM6.77919 9.09553L6.97365 9.51049L7.40919 9.57685L7.09419 9.90025L7.16895 10.3555L6.77919 10.1405L6.38943 10.3555L6.46419 9.90025L6.14919 9.57685L6.58473 9.51049L6.77919 9.09553ZM8.45919 9.09553L8.65365 9.51049L9.08919 9.57685L8.77419 9.90025L8.84895 10.3555L8.45919 10.1405L8.06943 10.3555L8.14419 9.90025L7.82919 9.57685L8.26473 9.51049L8.45919 9.09553ZM10.1392 9.09553L10.3337 9.51049L10.7692 9.57685L10.4542 9.90025L10.529 10.3555L10.1392 10.1405L9.74943 10.3555L9.82419 9.90025L9.50919 9.57685L9.94474 9.51049L10.1392 9.09553ZM11.7142 9.09553L11.9087 9.51049L12.3442 9.57685L12.0292 9.90025L12.104 10.3555L11.7142 10.1405L11.3244 10.3555L11.3992 9.90025L11.0842 9.57685L11.5197 9.51049L11.7142 9.09553Z" fill="white"/>
</g>
<defs>
<clipPath id="clip0_534_2379">
<rect width="24" height="24" fill="white" transform="translate(0.978394 0.455322)"/>
</clipPath>
</defs>
</svg>
