<svg width="112" height="134" viewBox="0 0 112 134" fill="none" xmlns="http://www.w3.org/2000/svg">
<path d="M13.8224 17.2266C9.77244 19.4466 6.96244 22.7566 5.13244 26.8766C2.00244 33.9166 2.24244 41.1066 4.44244 48.3166C4.84244 49.6366 4.81244 50.7566 4.31244 52.0366C-4.22756 73.7566 0.962444 97.2966 17.9224 113.307C26.3024 121.207 36.2524 126.247 47.7224 127.467C59.1324 128.677 71.4724 120.317 69.1624 105.457C67.9124 97.3866 63.6524 91.0566 57.4824 85.9866C48.7024 78.7666 39.7224 71.7866 30.9624 64.5366C24.3724 59.0866 18.0624 53.3066 13.2924 46.0966C11.9124 44.0066 10.6524 41.7766 9.72244 39.4566C6.70244 31.9566 8.00244 25.0066 12.7924 18.6066C13.1324 18.1466 13.4824 17.6866 13.8224 17.2266Z" fill="#ED7532"/>
<path d="M107.752 92.6468C108.602 89.4068 109.692 86.2168 110.262 82.9368C113.172 65.9968 109.362 50.6468 98.4524 37.3468C89.2625 26.1568 77.2824 19.5568 62.8624 17.7268C49.7125 16.0668 37.4124 18.6968 26.1724 25.7668C23.3824 27.5268 20.8324 29.6868 18.2924 31.8068C17.2824 32.6568 16.5824 32.8668 15.7024 31.8068C14.3424 30.1868 12.9624 28.5768 11.2524 26.9868C11.7124 28.7668 12.0024 30.6168 12.6724 32.3168C14.3324 36.5668 17.3624 39.7568 21.0524 42.3568C26.6024 46.2868 32.6624 49.2868 38.9724 51.7268C50.6024 56.2168 62.3424 60.4268 73.9624 64.9368C82.2724 68.1568 90.4724 71.7068 97.5024 77.3768C102.152 81.1268 105.862 85.5268 106.782 91.7168C106.822 92.0068 106.982 92.2768 107.082 92.5568C107.312 92.5868 107.532 92.6068 107.762 92.6368L107.752 92.6468Z" fill="#013463"/>
<path d="M22.3525 49.8164C26.0125 52.3764 29.4925 55.2464 33.3525 57.4464C41.9925 62.3864 50.7824 67.0564 59.5724 71.7364C66.7324 75.5464 73.9725 79.2364 80.4725 84.1464C86.7125 88.8564 92.1925 94.2764 95.3025 101.666C97.3525 106.536 97.6624 111.416 95.4924 116.336C95.4024 116.536 95.4024 116.776 95.3624 116.996C95.4924 117.086 95.6124 117.166 95.7424 117.256C96.9424 115.836 98.3124 114.526 99.3224 112.986C104.552 105.066 103.822 95.9064 97.6024 88.2264C93.5124 83.1764 88.2324 79.6664 82.5024 76.9664C72.6624 72.3364 62.6825 68.0164 52.6925 63.7164C42.6925 59.4064 32.7525 55.0164 23.3125 49.5564C23.1125 49.4464 22.8825 49.3964 22.6625 49.3164C22.5625 49.4764 22.4525 49.6464 22.3525 49.8064V49.8164Z" fill="#ED7532"/>
<path d="M51.3424 74.9864C54.1424 77.0664 56.9924 79.0764 59.7224 81.2364C65.1324 85.5264 70.0824 90.2664 73.7224 96.2264C79.8624 106.286 79.5624 116.236 73.1524 126.016C71.7124 128.216 69.9324 130.196 68.3124 132.266C67.9824 132.686 67.6524 133.096 67.2224 133.636C67.6024 133.686 67.8124 133.776 67.9324 133.716C74.4824 130.426 80.4224 126.336 84.6824 120.246C90.1124 112.476 88.9124 104.876 83.7524 97.6764C77.4624 88.9064 68.5224 83.3664 59.2224 78.3664C56.7124 77.0164 54.1124 75.8164 51.5524 74.5464C51.4824 74.6964 51.4224 74.8364 51.3524 74.9864H51.3424Z" fill="#013463"/>
<path d="M28.0724 21.8867C29.7124 21.3767 30.4124 20.5367 30.6024 19.1467C30.7924 17.7967 31.6724 16.5067 30.8824 15.0767C30.7824 14.9067 30.8924 14.5867 30.9624 14.3567C31.4824 12.6867 31.8524 11.0367 31.4524 9.22666C31.3324 8.66666 32.0724 7.74666 32.6524 7.23666C33.7524 6.26666 35.1524 5.61667 36.1424 4.56667C36.7024 3.97667 36.6924 2.84667 36.9424 1.96667C36.0924 1.81667 35.1324 1.33667 34.4124 1.57667C32.9824 2.04667 31.6524 2.86666 30.3224 3.61666C28.8524 4.44666 27.4424 4.13666 26.3924 2.75666C26.1724 2.46666 25.6724 2.29667 25.2724 2.22667C24.4624 2.06667 23.2924 2.31667 22.8624 1.84667C21.5624 0.446665 19.7824 0.766665 18.2824 0.176665C17.8624 0.00666504 17.2824 -0.073335 16.8824 0.086665C16.3524 0.296665 15.9224 0.776665 15.4524 1.14666C15.8224 1.52666 16.1324 1.97666 16.5624 2.25666C18.7524 3.72667 20.9824 5.14667 23.1824 6.60667C24.7124 7.62667 24.7124 7.64667 23.3124 8.71667C22.6324 9.23667 21.8724 9.67667 21.2524 10.2667C19.6424 11.7967 17.9824 12.4967 15.8524 11.1767C15.4824 10.9467 14.6724 11.4067 14.0724 11.5467C14.3124 11.9867 14.5424 12.4367 14.8024 12.8667C15.6924 14.3367 16.5824 15.8167 17.5124 17.2667C17.7724 17.6767 18.1624 18.0067 18.4924 18.3667C18.8324 17.9667 19.5124 17.5267 19.4624 17.1867C18.9724 14.0167 21.2524 13.1567 23.4524 12.1267C26.1724 10.8467 26.5924 9.83667 27.0224 13.9167C27.2924 16.5267 27.7124 19.1267 28.0824 21.8767L28.0724 21.8867Z" fill="#ED7532"/>
</svg>
