<svg width="33" height="32" viewBox="0 0 33 32" fill="none" xmlns="http://www.w3.org/2000/svg">
<g clip-path="url(#clip0_536_2178)">
<path d="M14.5935 3.0376L10.8668 11.763H18.4635L14.5935 3.0376ZM16.0268 3.44968L19.6818 11.6734L25.021 11.1897C25.2584 11.1673 25.46 10.9904 25.5227 10.7597C25.5854 10.529 25.5025 10.2916 25.3077 10.1505L16.0268 3.44968ZM13.1243 3.55718L3.98683 10.1505C3.79199 10.2894 3.70912 10.529 3.77183 10.7597C3.83454 10.9904 4.0361 11.1673 4.2735 11.1897L9.6485 11.6734L13.1243 3.55718ZM14.0739 12.3363V17.4426C14.1568 17.4986 14.2464 17.5568 14.3247 17.6218L15.2206 18.3743V12.3363H14.0739ZM26.1139 14.0563C24.8485 14.0563 23.8206 15.0843 23.8206 16.3497C23.8206 17.615 24.8485 18.643 26.1139 18.643C26.311 18.643 26.5036 18.6005 26.6872 18.5534L18.5172 22.6563H4.32725C4.01146 22.6563 3.75391 22.9117 3.75391 23.2297V24.9497C3.75391 25.2677 4.01146 25.523 4.32725 25.523H29.5539C29.8719 25.523 30.1272 25.2677 30.1272 24.9497V23.2297C30.1272 22.9117 29.8719 22.6563 29.5539 22.6563H28.2639L27.3681 19.503L29.1597 18.6072C29.4621 18.5086 29.6256 18.1839 29.527 17.8816C29.4285 17.5792 29.1038 17.4157 28.8014 17.5143C28.7521 17.5255 28.7029 17.5434 28.6581 17.568L27.5293 18.1234C28.0579 17.7024 28.4072 17.0753 28.4072 16.3497C28.4072 15.0843 27.3793 14.0563 26.1139 14.0563ZM21.6885 16.923C21.4287 16.9387 21.1644 17.0148 20.9181 17.138L14.4502 20.363H6.62058C5.98902 20.363 5.47391 20.8781 5.47391 21.5097C5.47391 21.718 5.53662 21.9128 5.63516 22.083H18.3918L23.7489 19.3955C23.8542 18.9521 23.8251 18.4728 23.6056 18.0338C23.2338 17.2925 22.4679 16.8737 21.6885 16.923ZM12.4793 18.0697C12.0829 18.054 11.6731 18.1682 11.3327 18.4101L9.37975 19.7897H14.3247L14.8264 19.5388L13.5902 18.4997C13.2699 18.2309 12.8757 18.0854 12.4793 18.0697ZM26.311 20.0405L27.0635 22.6563H21.0972L26.311 20.0405ZM5.47391 26.6697V28.3897C5.47391 28.7077 5.73146 28.963 6.04725 28.963H8.34058C8.65636 28.963 8.91391 28.7077 8.91391 28.3897V26.6697H5.47391ZM24.9672 26.6697V28.3897C24.9672 28.7077 25.2248 28.963 25.5406 28.963H27.8339C28.1497 28.963 28.4072 28.7077 28.4072 28.3897V26.6697H24.9672Z" fill="#F8F8F8"/>
</g>
<defs>
<clipPath id="clip0_536_2178">
<rect width="32" height="32" fill="white" transform="translate(0.940552)"/>
</clipPath>
</defs>
</svg>
