<svg width="33" height="32" viewBox="0 0 33 32" fill="none" xmlns="http://www.w3.org/2000/svg">
<g clip-path="url(#clip0_534_2464)">
<path d="M16.0594 2.6665C13.4136 2.6665 11.2594 4.82067 11.2594 7.4665C11.2594 10.1123 13.4136 12.2665 16.0594 12.2665C18.7073 12.2665 20.8594 10.1123 20.8594 7.4665C20.8594 4.82067 18.7073 2.6665 16.0594 2.6665ZM16.0594 5.23317C16.4115 5.23317 16.6927 5.51442 16.6927 5.8665C16.6927 6.21859 16.4115 6.49984 16.0594 6.49984C15.7052 6.49984 15.4261 6.21859 15.4261 5.8665C15.4261 5.51442 15.7073 5.23317 16.0594 5.23317ZM15.5261 7.09984H16.5927V9.59984H15.5261V7.09984ZM4.32607 14.3998C3.79274 14.3998 2.72607 14.954 2.72607 15.9998V29.3332H5.92607V27.1998H26.1927V29.3332H29.3927V20.7998C29.3927 19.7519 28.3261 19.1998 27.7927 19.1998C27.2594 19.1998 26.1927 19.7519 26.1927 20.7998V23.9998H5.92607V15.9998C5.92607 14.954 4.85941 14.3998 4.32607 14.3998ZM9.65941 17.5998C8.18857 17.5998 6.99274 18.7957 6.99274 20.2665C6.99274 21.7373 8.18857 22.9332 9.65941 22.9332C11.1302 22.9332 12.3261 21.7373 12.3261 20.2665C12.3261 18.7957 11.1302 17.5998 9.65941 17.5998ZM14.4594 17.5998C13.5782 17.5998 12.8594 18.3186 12.8594 19.1998V22.9332H25.1261V19.1998C25.1261 18.3186 24.4073 17.5998 23.5261 17.5998H14.4594Z" fill="#F8F8F8"/>
</g>
<defs>
<clipPath id="clip0_534_2464">
<rect width="32" height="32" fill="white" transform="translate(0.0594482)"/>
</clipPath>
</defs>
</svg>
